Coordinates
version=1
nRows=17
nColumns=38
inDegrees=no

Units are S.I. units (second, meters, Newtons, ...)
If the header above contains a line with 'inDegrees', this indicates whether rotational values are in degrees (yes) or radians (no).

endheader
time	pelvis_tilt	pelvis_list	pelvis_rotation	pelvis_tx	pelvis_ty	pelvis_tz	hip_flexion_r	hip_adduction_r	hip_rotation_r	knee_angle_r	ankle_angle_r	subtalar_angle_r	mtp_angle_r	hip_flexion_l	hip_adduction_l	hip_rotation_l	knee_angle_l	ankle_angle_l	subtalar_angle_l	mtp_angle_l	lumbar_extension	lumbar_bending	lumbar_rotation	arm_flex_r	arm_add_r	arm_rot_r	elbow_flex_r	pro_sup_r	wrist_flex_r	wrist_dev_r	arm_flex_l	arm_add_l	arm_rot_l	elbow_flex_l	pro_sup_l	wrist_flex_l	wrist_dev_l
0	2.38662	1.54385	-0.871656	0.726193	-0.534679	1.00391	0.514542	-0.122144	-0.209533	0.690135	0.0134307	0	0	-0.0673938	0.0397599	-0.247395	0.230956	0.181528	0	0	-0.303971	0.0159522	0.078215	0.115573	-0.245879	0.157676	0.324052	1.19817	0	0	0.183484	-0.196353	0.387416	0.298838	1.3125	0	0
0.01	2.27597	1.5378	-0.755137	0.726769	-0.527332	1.00373	0.502592	-0.116529	-0.237011	0.642122	0.0189507	0	0	-0.0777358	0.0310509	-0.24581	0.231312	0.187369	0	0	-0.308761	0.0239722	0.0764242	0.116209	-0.247541	0.166099	0.325387	1.19125	0	0	0.186299	-0.197043	0.397528	0.299656	1.30165	0	0
0.02	2.15701	1.53258	-0.630795	0.727416	-0.519736	1.0033	0.501226	-0.123902	-0.295672	0.616924	0.0280901	0	0	-0.0860607	0.0222388	-0.244154	0.231846	0.194082	0	0	-0.311402	0.0322586	0.0747391	0.117215	-0.248631	0.171156	0.325355	1.18383	0	0	0.187435	-0.197912	0.40742	0.301074	1.2896	0	0
0.03	2.07436	1.52092	-0.542682	0.728377	-0.512101	1.00327	0.483185	-0.107832	-0.320038	0.562528	0.0296141	0	0	-0.09758	0.00692126	-0.244874	0.23376	0.202065	0	0	-0.31858	0.0455846	0.0743635	0.118709	-0.250959	0.180949	0.326776	1.17143	0	0	0.18833	-0.199951	0.424649	0.307003	1.26965	0	0
0.04	2.00292	1.51771	-0.466388	0.729496	-0.504117	1.00248	0.466821	-0.0877844	-0.31193	0.496698	0.029854	0	0	-0.104658	1.63658e-06	-0.242211	0.233657	0.207022	0	0	-0.31839	0.0507081	0.0723162	0.118348	-0.250321	0.18375	0.3264	1.16792	0	0	0.187954	-0.202027	0.430366	0.309594	1.26463	0	0
0.05	1.94312	1.51181	-0.403278	0.730763	-0.496142	1.00188	0.456371	-0.0757823	-0.328209	0.451354	0.0336089	0	0	-0.112932	-0.0095139	-0.242354	0.233847	0.212712	0	0	-0.319924	0.057997	0.0722562	0.119656	-0.249308	0.180616	0.323302	1.1728	0	0	0.188807	-0.201461	0.426403	0.307456	1.27098	0	0
0.06	1.87162	1.48876	-0.331978	0.732456	-0.489257	1.00264	0.438643	-0.0466109	-0.357459	0.4005	0.0256583	0	0	-0.122746	-0.0383729	-0.250398	0.23893	0.22071	0	0	-0.331621	0.0824543	0.0808459	0.127224	-0.251164	0.170707	0.318232	1.1893	0	0	0.193816	-0.197484	0.427661	0.305173	1.26368	0	0
0.07	1.84587	1.48291	-0.302375	0.733901	-0.480869	1.00186	0.427941	-0.0333535	-0.363796	0.359657	0.030174	0	0	-0.131756	-0.0477235	-0.250508	0.239183	0.226634	0	0	-0.332073	0.0890315	0.0800404	0.126355	-0.250435	0.171191	0.317278	1.18887	0	0	0.192144	-0.199415	0.431399	0.307078	1.2585	0	0
0.08	1.82875	1.47781	-0.282526	0.735493	-0.472354	1.00105	0.418763	-0.0210416	-0.365479	0.325193	0.0327912	0	0	-0.140698	-0.056301	-0.252316	0.240893	0.232857	0	0	-0.332495	0.0943153	0.0800091	0.124653	-0.249708	0.171477	0.317326	1.18891	0	0	0.190318	-0.201351	0.434261	0.309351	1.2551	0	0
0.09	1.79517	1.46789	-0.247952	0.737256	-0.464297	1.0007	0.411241	-0.00591436	-0.374907	0.296265	0.0295718	0	0	-0.147312	-0.0705161	-0.254237	0.245263	0.238712	0	0	-0.334641	0.104972	0.0833501	0.124858	-0.250416	0.171904	0.317624	1.18896	0	0	0.189955	-0.201727	0.436814	0.311073	1.2514	0	0
0.1	1.79243	1.47276	-0.239407	0.738548	-0.454652	0.999039	0.409062	-0.00616732	-0.365115	0.281845	0.0366062	0	0	-0.155499	-0.0678289	-0.249268	0.245924	0.243314	0	0	-0.328696	0.100802	0.0770628	0.11851	-0.247891	0.170958	0.318481	1.18922	0	0	0.183926	-0.20606	0.439731	0.314054	1.2491	0	0
0.11	1.77682	1.47124	-0.220289	0.740077	-0.445454	0.997976	0.40668	-0.00162692	-0.364491	0.271316	0.0383449	0	0	-0.162565	-0.0726224	-0.247088	0.249106	0.246409	0	0	-0.325623	0.103157	0.075049	0.114171	-0.247019	0.170689	0.319142	1.1893	0	0	0.179699	-0.207973	0.441621	0.315345	1.24672	0	0
0.12	1.7736	1.47021	-0.214651	0.74171	-0.435916	0.997054	0.40384	0.00178763	-0.362527	0.266482	0.040659	0	0	-0.171027	-0.0765638	-0.246012	0.252455	0.248046	0	0	-0.323254	0.104569	0.0738185	0.10979	-0.245281	0.166215	0.317766	1.19676	0	0	0.177944	-0.202343	0.401357	0.302629	1.30079	0	0
0.13	1.76358	1.47463	-0.199447	0.744046	-0.426326	0.995995	0.404236	-0.000983698	-0.361094	0.26839	0.0452754	0	0	-0.17509	-0.077026	-0.240516	0.259696	0.25078	0	0	-0.317735	0.0983304	0.0698503	0.1028	-0.240267	0.170772	0.317864	1.1858	0	0	0.169441	-0.216807	0.451485	0.321069	1.23739	0	0
0.14	1.81243	1.46837	-0.245504	0.745095	-0.416451	0.995507	0.394635	0.00465542	-0.361748	0.271189	0.0433786	0	0	-0.189307	-0.0851071	-0.240207	0.265754	0.254706	0	0	-0.321689	0.105865	0.0696939	0.0976185	-0.242276	0.170311	0.319527	1.18954	0	0	0.164014	-0.214867	0.447175	0.321317	1.24024	0	0
0.15	1.85836	1.46366	-0.287485	0.746728	-0.406489	0.995016	0.385909	0.00846519	-0.363231	0.279315	0.0432762	0	0	-0.201481	-0.0928711	-0.238372	0.274897	0.257073	0	0	-0.325252	0.110157	0.0684813	0.0913925	-0.241931	0.169125	0.322091	1.1921	0	0	0.158354	-0.215705	0.442719	0.323745	1.24334	0	0
0.16	1.87697	1.45316	-0.303522	0.748596	-0.3969	0.994979	0.377679	0.0169081	-0.375639	0.289464	0.034377	0	0	-0.210313	-0.108128	-0.239359	0.288212	0.256527	0	0	-0.329862	0.120831	0.070543	0.0861973	-0.242768	0.167824	0.325326	1.19388	0	0	0.153802	-0.214854	0.438021	0.325643	1.24661	0	0
